<svg width="20" height="20" xmlns="http://www.w3.org/2000/svg">

 <g>
  <title>background</title>
  <rect fill="none" id="canvas_background" height="22" width="22" y="-1" x="-1"/>
 </g>
 <g>
  <title>Layer 1</title>
  <g transform="rotate(-11.964763641357422 8.909022331237782,9.172191619873049) " stroke="#888888" id="svg_1">
   <g transform="rotate(-36.956024169921875 8.909022331237791,9.172190666198729) " stroke="null" id="svg_2">
    <path stroke="null" id="svg_3" d="m17.101598,10.312932c0,4.773896 -3.675151,8.657737 -8.19254,8.657737s-8.192612,-3.883841 -8.192612,-8.657737c0,-0.283582 0.217568,-0.513502 0.485915,-0.513502s0.485915,0.229958 0.485915,0.513502c0,4.207612 3.239218,7.630694 7.220746,7.630694s7.220746,-3.42312 7.220746,-7.630694c0,-4.207535 -3.239218,-7.630655 -7.220746,-7.630655l-0.843035,0l1.205444,1.425949c0.178814,0.211471 0.161465,0.536123 -0.038646,0.725089c-0.20011,0.188966 -0.507357,0.170593 -0.686134,-0.040878l-1.723159,-2.038355c-0.282074,-0.333685 -0.282074,-0.836929 0,-1.170614l1.723159,-2.038355c0.096017,-0.113601 0.228977,-0.171397 0.362553,-0.171397c0.115213,0 0.230897,0.043098 0.323581,0.130519c0.200147,0.188966 0.217459,0.513617 0.038646,0.725089l-1.205444,1.425949l0.843035,0c4.517425,0 8.192576,3.883841 8.192576,8.65766z"/>
   </g>
  </g>
 </g>
</svg>